<svg width="1440" height="1024" viewBox="0 0 1440 1024" fill="none" xmlns="http://www.w3.org/2000/svg">
<rect width="1440" height="1024" fill="white"/>
<path d="M716.777 665.392C786.058 665.183 842.759 664.999 842.784 664.985C843.092 664.803 799.644 661.88 798.501 661C796.234 659.247 834.351 658.448 830.135 657.233L827.962 656.604L815.009 656.366C803.102 656.148 801.937 656.1 800.579 655.777C791.665 653.659 784.625 654.592 778.976 658.64C774.876 661.579 772.643 660.964 772.267 656.791L772.153 655.522L771.11 655.101C765.562 652.862 759.574 652.825 752.506 654.988C749.075 656.038 744.183 657.276 742.887 657.422L741.854 657.539L739.483 656.202C733.229 652.677 720.707 647.095 716.877 646.125C711.052 644.649 707.614 645.866 704.372 650.553C702.788 652.844 703.005 652.742 697.132 653.943C686.206 656.176 680.213 657.817 673.661 660.368C668.353 662.436 666.394 662.344 662.696 659.856C659.383 657.627 658.98 657.474 646.584 653.748L639.888 651.735L638.649 652.923C637.968 653.576 636.628 654.862 635.672 655.781L633.934 657.45L619.068 659.297C604.337 661.127 633.983 663.154 607.707 665.392C593.124 666.635 649.277 660.336 649.037 660.368C648.075 660.5 596.849 665.761 716.779 665.398L716.777 665.392ZM619.949 650.714C615.842 647.473 617.938 644.01 624.371 643.407C630.442 642.837 650.7 645.606 668.358 649.418C669.41 649.645 670.322 649.777 670.385 649.712C670.532 649.561 686.505 619.74 686.463 619.697C686.419 619.651 676.946 621.061 671.053 621.991C616.404 630.613 587.966 641.498 597.028 650.324L597.77 651.047L607.707 651.232C613.172 651.333 618.363 651.416 619.241 651.416H620.838L619.949 650.714ZM699.217 645.222C699.21 644.584 696.769 621.826 696.7 621.757C696.651 621.707 696.611 621.829 696.611 622.028C696.611 623.929 689.158 634.553 681.641 643.367L680.288 644.953L684.842 645.056C696.85 645.328 699.219 645.355 699.217 645.222ZM762.845 614.751C771.96 602.875 779.541 593.016 779.693 592.839C780.45 591.957 773.602 582.383 767.005 575.101C735.824 540.684 685.985 528.256 634.971 542.177L634.275 542.367L622.071 562.202C615.359 573.112 609.894 582.064 609.927 582.097C609.959 582.129 610.522 581.887 611.177 581.558C619.592 577.339 632.841 573.398 643.933 571.818C688.356 565.463 724.306 587.774 745.665 634.984L746.282 636.348L762.854 614.757L762.845 614.751ZM596.808 627.061C603.586 621.117 622.697 615.983 649.037 613.031C651.61 612.743 653.73 612.486 653.748 612.461C653.767 612.436 656.657 604.993 660.172 595.921C663.687 586.849 666.598 579.34 666.641 579.233C666.684 579.127 666.5 578.993 666.232 578.936C649.321 575.333 634.97 577.032 620.548 584.343C617.767 585.753 612.84 588.826 612.28 589.5C612.04 589.789 595.903 627.634 595.987 627.712C596.009 627.732 596.378 627.439 596.809 627.061L596.808 627.061ZM786.282 571.587C796.155 552.069 800.526 535.274 798.148 525.988C797.008 521.537 785.547 509.236 775.532 501.715C745.809 479.388 708.884 474.926 668.265 488.748L664.005 490.198L653.431 509.264C647.615 519.751 642.894 528.367 642.939 528.412C642.984 528.457 644.299 528.335 645.863 528.142C706.194 520.677 759.137 538.068 782.864 573.144L784.367 575.366L786.281 571.582L786.282 571.587ZM797.917 505.957C798.182 505.011 798.048 494.368 797.733 491.319C793.478 450.095 767.81 419.184 724.344 402.949C719.689 401.21 718.339 400.788 718.124 401.003C717.87 401.256 673.327 476.288 673.391 476.354C673.42 476.383 674.359 476.13 675.479 475.791C693.076 470.464 715.977 469.596 735.218 473.525C758.444 478.27 777.498 488.179 796.788 505.539L797.782 506.434L797.918 505.948L797.917 505.957ZM726.742 389.537C728.353 375.095 734.963 366.627 754.963 353.379C756.986 352.039 758.785 350.845 758.962 350.725C759.592 350.298 754.876 350.876 751.409 351.651C735.582 355.187 722.133 365.487 717.816 377.377C717.599 377.974 717.399 378.462 717.371 378.462C717.343 378.462 716.591 378.267 715.699 378.028C695.895 372.716 677.735 377.151 670.808 388.991C669.613 391.033 669.646 391.079 671.446 389.896C679.765 384.428 689.538 383.357 703.647 386.368C710.514 387.833 713.85 388.92 726.086 393.68C726.206 393.727 726.435 392.278 726.741 389.535L726.742 389.537ZM700.603 345.746C700.603 337.168 705.046 330.881 716.634 323.06C719.805 320.921 719.803 320.894 716.587 321.444C706.828 323.11 698.269 329.403 695.69 336.807C695.603 337.058 695.473 337.053 694.317 336.757C682.864 333.819 672.265 336.588 668.765 343.432C668.356 344.231 668.373 344.232 669.588 343.456C675.879 339.437 685.089 339.819 697.5 344.615C698.777 345.108 699.997 345.579 700.212 345.661C700.428 345.743 700.603 345.781 700.603 345.746Z" fill="#323F48"/>
</svg>
