<svg width="284" height="597" viewBox="0 0 284 597" fill="none" xmlns="http://www.w3.org/2000/svg">
<path d="M119.986 100.049L119.986 533.594L0 537.944L119.986 100.049Z" fill="#A0E720" fill-opacity="0.2"/>
<path d="M119.624 100.049L119.624 533.594L12.6873 537.944L119.624 100.049Z" fill="url(#paint0_linear_181_3283)"/>
<path d="M132.673 7.97461C174.876 209.58 207.274 320.179 283.834 512.206L132.674 524.531L132.673 7.97461Z" fill="#A0E720" fill-opacity="0.2"/>
<path d="M132.311 187.048C151.974 317.705 167.363 390.398 202.273 519.094L132.311 524.531L132.311 187.048Z" fill="url(#paint1_linear_181_3283)"/>
<rect x="122.524" width="7.97491" height="537.944" fill="#A0E720" fill-opacity="0.2"/>
<rect x="125.424" width="5.07494" height="537.944" fill="url(#paint2_linear_181_3283)"/>
<path d="M7.97493 561.868L279.122 567.668L272.319 586.434C270.092 592.577 264.258 596.668 257.724 596.668H35.1621L7.97493 561.868Z" fill="url(#paint3_linear_181_3283)"/>
<path d="M14.1373 561.506L69.2367 562.593C69.2367 562.593 121.436 572.743 139.923 579.993C156.598 588.331 210.61 588.331 210.61 588.331C232.084 586.974 255.922 579.631 272.234 567.306C278.034 567.306 279.122 567.668 279.122 567.668L272.319 586.434C270.092 592.577 264.258 596.668 257.724 596.668H37.6995L14.1373 561.506Z" fill="#21B972"/>
<path d="M3.26247 552.806L279.122 561.869V567.668L7.97491 561.869L3.26247 552.806Z" fill="#21B972"/>
<path d="M3.26247 550.631L230.185 560.056L3.26247 552.806V550.631Z" fill="#A0E720" fill-opacity="0.2"/>
<path d="M70.6059 549.235L65.2493 552.806L97.8739 554.619L98.9164 552.906C101.42 548.792 105.888 546.282 110.704 546.282H139.923L121.436 538.307L116.361 542.657L87.5385 543.755C81.4968 543.985 75.6365 545.882 70.6059 549.235Z" fill="#A0E720" fill-opacity="0.2"/>
<path d="M121.799 537.944V542.294L93.5239 546.644L90.624 555.706L245.41 560.781L243.815 555.541C243.249 553.683 241.578 552.381 239.638 552.286L198.285 550.269V546.569C198.285 541.806 194.424 537.944 189.66 537.944H154.061L153.336 535.769H125.424V537.944H121.799Z" fill="#21B972"/>
<path d="M152.973 535.769H189.223C192.426 535.769 195.023 538.366 195.023 541.569H152.973V535.769Z" fill="#333F48"/>
<path d="M146.905 548.868C147.066 548.404 147.502 548.094 147.992 548.094H164.148C164.783 548.094 165.298 548.609 165.298 549.244V556.369C165.298 557.004 164.783 557.519 164.148 557.519H145.526C144.735 557.519 144.181 556.739 144.439 555.992L146.905 548.868Z" fill="#333F48"/>
<path d="M172.231 549.288C172.206 548.636 172.728 548.094 173.381 548.094H186.258C186.734 548.094 187.161 548.387 187.331 548.831L190.072 555.956C190.361 556.709 189.805 557.519 188.998 557.519H173.655C173.037 557.519 172.529 557.03 172.506 556.413L172.231 549.288Z" fill="#333F48"/>
<defs>
<linearGradient id="paint0_linear_181_3283" x1="12.6873" y1="315.728" x2="119.624" y2="315.728" gradientUnits="userSpaceOnUse">
<stop stop-color="#FAED00"/>
<stop offset="0.514378" stop-color="#00D900"/>
<stop offset="1" stop-color="#21BA5D"/>
</linearGradient>
<linearGradient id="paint1_linear_181_3283" x1="132.311" y1="353.271" x2="202.273" y2="353.271" gradientUnits="userSpaceOnUse">
<stop stop-color="#FAED00"/>
<stop offset="0.514378" stop-color="#00D900"/>
<stop offset="1" stop-color="#21BA5D"/>
</linearGradient>
<linearGradient id="paint2_linear_181_3283" x1="125.424" y1="264.957" x2="130.498" y2="264.957" gradientUnits="userSpaceOnUse">
<stop stop-color="#FAED00"/>
<stop offset="0.514378" stop-color="#00D900"/>
<stop offset="1" stop-color="#21BA5D"/>
</linearGradient>
<linearGradient id="paint3_linear_181_3283" x1="7.97493" y1="579.008" x2="279.122" y2="579.008" gradientUnits="userSpaceOnUse">
<stop stop-color="#FAED00"/>
<stop offset="0.514378" stop-color="#00D900"/>
<stop offset="1" stop-color="#21BA5D"/>
</linearGradient>
</defs>
</svg>
