<svg width="20" height="20" viewBox="0 0 20 20" fill="none" xmlns="http://www.w3.org/2000/svg">
<path d="M10 10.5C11.9412 10.5 15.5 11.2143 15.5 14.0714C15.5 15.3214 15.1765 15.5 14.5294 15.5H5.47059C4.82353 15.5 4.5 15.3214 4.5 14.0714C4.5 11.2143 8.05882 10.5 10 10.5ZM10 4C11.3813 4 12.5 5.11875 12.5 6.5C12.5 7.88125 11.3813 9 10 9C8.61875 9 7.5 7.88125 7.5 6.5C7.5 5.11875 8.61875 4 10 4Z" fill="white"/>
<path d="M4.23795 11.0045C4.15561 11.0015 4.0761 11 4 11C2.58824 11 0 11.5 0 13.5C0 14.375 0.235294 14.5 0.705882 14.5H3.01139C3.00251 14.3504 3 14.2062 3 14.0714C3 12.7457 3.51601 11.7424 4.23795 11.0045Z" fill="white"/>
<path d="M16.9886 14.5H19.2941C19.7647 14.5 20 14.375 20 13.5C20 11.5 17.4118 11 16 11C15.9239 11 15.8444 11.0015 15.7621 11.0045C16.484 11.7424 17 12.7457 17 14.0714C17 14.2062 16.9975 14.3504 16.9886 14.5Z" fill="white"/>
<path d="M6 8C6 9.10457 5.10457 10 4 10C2.89543 10 2 9.10457 2 8C2 6.89543 2.89543 6 4 6C5.10457 6 6 6.89543 6 8Z" fill="white"/>
<path d="M16 10C17.1046 10 18 9.10457 18 8C18 6.89543 17.1046 6 16 6C14.8954 6 14 6.89543 14 8C14 9.10457 14.8954 10 16 10Z" fill="white"/>
</svg>
