<svg width="20" height="20" viewBox="0 0 20 20" fill="none" xmlns="http://www.w3.org/2000/svg">
<path d="M4.16669 7.91402C4.16669 10.1877 5.77637 13.4956 8.99572 17.8379C9.48903 18.5033 10.5184 18.4934 11.0043 17.8379C14.2237 13.4956 15.8334 10.1877 15.8334 7.91402C15.8334 4.69044 13.225 2.08325 10 2.08325C6.77502 2.08325 4.16669 4.69044 4.16669 7.91402ZM7.91669 7.91402C7.91669 6.76452 8.85002 5.8316 10 5.8316C11.15 5.8316 12.0834 6.76452 12.0834 7.91402C12.0834 9.06351 11.15 9.99643 10 9.99643C8.85002 9.99643 7.91669 9.06351 7.91669 7.91402Z" fill="white"/>
</svg>
