<svg width="20" height="20" viewBox="0 0 20 20" fill="none" xmlns="http://www.w3.org/2000/svg">
<path d="M14.2857 5C18.2143 5 18.5714 11.4286 18.5714 13.5714C18.5714 15.7143 18.2143 16.4286 16.7857 16.4286C15.3572 16.4286 13.9286 12.8571 12.8572 12.8571H7.14287C6.07145 12.8571 4.27781 16.4286 3.2143 16.4286C1.78573 16.4286 1.42859 15.7143 1.42859 13.5714C1.42859 11.4286 1.78573 5 5.7143 5H14.2857ZM6.4268 7.14286H6.07323C5.875 7.14286 5.7143 7.30355 5.7143 7.50179L5.71359 8.39286H4.82323C4.64703 8.39286 4.50048 8.51983 4.47009 8.68727L4.4643 8.75179V9.10536C4.4643 9.30359 4.625 9.46429 4.82323 9.46429H5.71359L5.7143 10.3554C5.7143 10.5316 5.84127 10.6781 6.00871 10.7085L6.07323 10.7143H6.4268C6.62503 10.7143 6.78573 10.5536 6.78573 10.3554L6.78502 9.46429H7.6768C7.85301 9.46429 7.99956 9.33731 8.02995 9.16987L8.03573 9.10536V8.75179C8.03573 8.55355 7.87503 8.39286 7.6768 8.39286H6.78502L6.78573 7.50179C6.78573 7.32558 6.65876 7.17903 6.49132 7.14864L6.4268 7.14286ZM13.9268 9.64286H13.5732C13.375 9.64286 13.2143 9.80355 13.2143 10.0018V10.3554C13.2143 10.5536 13.375 10.7143 13.5732 10.7143H13.9268C14.125 10.7143 14.2857 10.5536 14.2857 10.3554V10.0018C14.2857 9.80355 14.125 9.64286 13.9268 9.64286ZM12.6768 8.39286H12.3232C12.125 8.39286 11.9643 8.55355 11.9643 8.75179V9.10536C11.9643 9.30359 12.125 9.46429 12.3232 9.46429H12.6768C12.875 9.46429 13.0357 9.30359 13.0357 9.10536V8.75179C13.0357 8.55355 12.875 8.39286 12.6768 8.39286ZM15.1768 8.39286H14.8232C14.625 8.39286 14.4643 8.55355 14.4643 8.75179V9.10536C14.4643 9.30359 14.625 9.46429 14.8232 9.46429H15.1768C15.375 9.46429 15.5357 9.30359 15.5357 9.10536V8.75179C15.5357 8.55355 15.375 8.39286 15.1768 8.39286ZM13.9268 7.14286H13.5732C13.375 7.14286 13.2143 7.30355 13.2143 7.50179V7.85536C13.2143 8.05359 13.375 8.21429 13.5732 8.21429H13.9268C14.125 8.21429 14.2857 8.05359 14.2857 7.85536V7.50179C14.2857 7.30355 14.125 7.14286 13.9268 7.14286Z" fill="white"/>
</svg>
